<svg xmlns="http://www.w3.org/2000/svg" version="1.1" xmlns:xlink="http://www.w3.org/1999/xlink" xmlns:svgjs="http://svgjs.dev/svgjs" width="1440" height="560" preserveAspectRatio="none" viewBox="0 0 1440 560"><g mask="url(&quot;#SvgjsMask1028&quot;)" fill="none"><rect width="1440" height="560" x="0" y="0" fill="	#031424"></rect><path d="M813.86 186.88 a171.77 171.77 0 1 0 343.54 0 a171.77 171.77 0 1 0 -343.54 0z" fill="rgba(28, 83, 142, 0.4)" class="triangle-float2"></path><path d="M414.99 120.69 a125.67 125.67 0 1 0 251.34 0 a125.67 125.67 0 1 0 -251.34 0z" fill="rgba(28, 83, 142, 0.4)" class="triangle-float2"></path><path d="M233.852,164.694C263.902,164.91,297.162,162.808,313.473,137.569C330.844,110.691,327.327,74.473,309.207,48.094C293.053,24.578,262.376,22.237,233.852,21.662C203.813,21.056,169.879,20.06,153.042,44.944C134.713,72.033,137.896,109.327,156.191,136.438C172.706,160.912,204.328,164.482,233.852,164.694" fill="rgba(28, 83, 142, 0.4)" class="triangle-float1"></path><path d="M-84.49 354.95 a143.54 143.54 0 1 0 287.08 0 a143.54 143.54 0 1 0 -287.08 0z" fill="rgba(28, 83, 142, 0.4)" class="triangle-float2"></path><path d="M393.54 285.77 a179 179 0 1 0 358 0 a179 179 0 1 0 -358 0z" fill="rgba(28, 83, 142, 0.4)" class="triangle-float3"></path><path d="M69.71 349.93 a140.81 140.81 0 1 0 281.62 0 a140.81 140.81 0 1 0 -281.62 0z" fill="rgba(28, 83, 142, 0.4)" class="triangle-float3"></path><path d="M485.036,481.734C501.47,483.041,519.697,481.228,528.957,467.588C539.156,452.565,538.912,432.07,529.145,416.763C519.989,402.413,502.05,398.238,485.036,398.752C469.065,399.234,452.801,405.182,445.309,419.294C438.165,432.75,443.573,448.592,451.751,461.446C459.226,473.196,471.154,480.63,485.036,481.734" fill="rgba(28, 83, 142, 0.4)" class="triangle-float1"></path><path d="M1264.372,492.33C1297.919,491.067,1329.605,477.186,1347.707,448.914C1367.404,418.151,1373.618,379.827,1357.347,347.122C1339.229,310.704,1305.048,281.462,1264.372,281.406C1223.619,281.35,1190.458,311.082,1170.954,346.865C1152.356,380.987,1148.412,422.927,1169.411,455.626C1189.065,486.23,1228.026,493.698,1264.372,492.33" fill="rgba(28, 83, 142, 0.4)" class="triangle-float2"></path><path d="M283.803,492.273C329.636,491.699,371.911,468.987,395.958,429.964C421.308,388.827,429.79,336.721,405.346,295.039C381.136,253.756,331.553,235.511,283.803,238.721C241.195,241.585,209.674,273.112,187.612,309.676C164.554,347.89,145.874,393.347,166.676,432.835C188.547,474.352,236.882,492.86,283.803,492.273" fill="rgba(28, 83, 142, 0.4)" class="triangle-float3"></path><path d="M1333.733,223.143C1352.778,223.411,1368.952,210.659,1378.484,194.169C1388.025,177.663,1389.866,157.902,1381.284,140.878C1371.742,121.95,1354.924,105.9,1333.733,105.394C1311.819,104.871,1291.676,118.803,1282.081,138.511C1273.452,156.234,1280.84,176.115,1291.109,192.941C1300.831,208.872,1315.072,222.881,1333.733,223.143" fill="rgba(28, 83, 142, 0.4)" class="triangle-float3"></path><path d="M1022.69 427.19 a173.56 173.56 0 1 0 347.12 0 a173.56 173.56 0 1 0 -347.12 0z" fill="rgba(28, 83, 142, 0.4)" class="triangle-float3"></path><path d="M-13.215,190.773C8.956,189.965,28.854,177.102,39.205,157.478C48.914,139.071,45.67,117.243,34.989,99.383C24.621,82.047,6.921,71.444,-13.215,69.832C-37.066,67.922,-63.925,70.344,-76.944,90.419C-90.797,111.78,-86.346,140.063,-72.697,161.555C-60.005,181.541,-36.875,191.635,-13.215,190.773" fill="rgba(28, 83, 142, 0.4)" class="triangle-float3"></path><path d="M765.535,216.634C787.422,215.624,804.103,199.377,814.983,180.359C825.772,161.501,830.601,139.285,820.914,119.838C810.148,98.225,789.681,80.97,765.535,81.096C741.56,81.221,722.813,99.464,711.149,120.41C699.848,140.703,696.066,165.099,707.495,185.32C719.088,205.831,741.999,217.72,765.535,216.634" fill="rgba(28, 83, 142, 0.4)" class="triangle-float1"></path></g><defs><mask id="SvgjsMask1028"><rect width="1440" height="560" fill="#ffffff"></rect></mask><style>
                @keyframes float1 {
                    0%{transform: translate(0, 0)}
                    50%{transform: translate(-10px, 0)}
                    100%{transform: translate(0, 0)}
                }

                .triangle-float1 {
                    animation: float1 5s infinite;
                }

                @keyframes float2 {
                    0%{transform: translate(0, 0)}
                    50%{transform: translate(-5px, -5px)}
                    100%{transform: translate(0, 0)}
                }

                .triangle-float2 {
                    animation: float2 4s infinite;
                }

                @keyframes float3 {
                    0%{transform: translate(0, 0)}
                    50%{transform: translate(0, -10px)}
                    100%{transform: translate(0, 0)}
                }

                .triangle-float3 {
                    animation: float3 6s infinite;
                }
            </style></defs></svg>