<svg xmlns="http://www.w3.org/2000/svg" version="1.1" xmlns:xlink="http://www.w3.org/1999/xlink" xmlns:svgjs="http://svgjs.dev/svgjs" width="2000" height="1500" preserveAspectRatio="none" viewBox="0 0 2000 1500"><g mask="url(&quot;#SvgjsMask1106&quot;)" fill="none"><rect width="2000" height="1500" x="0" y="0" fill="rgba(3, 20, 36, 1)"></rect><path d="M1043.614,1100.264C1093.582,1099.286,1128.115,1055.329,1151.415,1011.114C1172.838,970.46,1181.605,922.265,1158.277,882.673C1135.25,843.591,1088.974,827.919,1043.614,828.152C998.723,828.383,954.515,845.618,930.974,883.842C906.306,923.896,906.525,973.756,928.243,1015.484C951.858,1060.857,992.474,1101.265,1043.614,1100.264" fill="rgba(11, 83, 148, 0.38)" class="triangle-float3"></path><path d="M1638.216,1049.438C1765.15,1046.588,1876.58,976.955,1944.955,869.973C2019.881,752.742,2067.162,605.862,1999.372,484.364C1930.315,360.595,1779.649,311.026,1638.216,320.214C1511.88,328.421,1414.265,417.396,1350.113,526.541C1284.87,637.542,1244.525,771.531,1306.659,884.302C1370.52,1000.206,1505.916,1052.408,1638.216,1049.438" fill="rgba(11, 83, 148, 0.38)" class="triangle-float2"></path><path d="M416.188,1388.931C500.696,1389.978,581.205,1355.515,629.134,1285.906C685.013,1204.751,724.563,1098.69,674.441,1013.859C624.836,929.903,513.686,923.648,416.188,925.498C323.008,927.266,220.784,942.531,174.373,1023.35C128.088,1103.95,160.91,1203.222,212.186,1280.742C257.699,1349.55,333.696,1387.909,416.188,1388.931" fill="rgba(11, 83, 148, 0.38)" class="triangle-float3"></path><path d="M1191.849,1245.929C1253.009,1246.162,1320.707,1240.839,1353.331,1189.107C1387.558,1134.834,1371.439,1066.257,1340.663,1009.956C1308.302,950.757,1259.292,895.48,1191.849,893.697C1121.985,891.85,1062.044,940.261,1028.755,1001.712C997.068,1060.207,995.537,1132.561,1032.483,1187.884C1066.135,1238.275,1131.254,1245.698,1191.849,1245.929" fill="rgba(11, 83, 148, 0.38)" class="triangle-float2"></path><path d="M-271.87 1186.51 a445.13 445.13 0 1 0 890.26 0 a445.13 445.13 0 1 0 -890.26 0z" fill="rgba(11, 83, 148, 0.38)" class="triangle-float1"></path><path d="M1250.304,464.068C1340.13,463.635,1416.897,401.521,1457.244,321.265C1493.787,248.577,1477.407,164.61,1436.085,94.528C1395.531,25.75,1330.021,-25.205,1250.304,-29.698C1162.01,-34.674,1069.61,-4.64,1024.326,71.32C978.144,148.787,994.899,245.107,1039.877,323.279C1084.987,401.68,1159.852,464.504,1250.304,464.068" fill="rgba(11, 83, 148, 0.38)" class="triangle-float1"></path><path d="M1825.421,1346.301C1919.378,1341.879,2018.593,1319.855,2065.556,1238.357C2112.468,1156.948,2083.848,1058.988,2038.362,976.774C1990.97,891.116,1923.185,809.382,1825.421,804.33C1720.237,798.895,1625.891,862.949,1570.617,952.604C1512.191,1047.371,1482.173,1169.503,1542.663,1262.966C1599.885,1351.38,1720.221,1351.252,1825.421,1346.301" fill="rgba(11, 83, 148, 0.38)" class="triangle-float2"></path></g><defs><mask id="SvgjsMask1106"><rect width="2000" height="1500" fill="#ffffff"></rect></mask><style>
                @keyframes float1 {
                    0%{transform: translate(0, 0)}
                    50%{transform: translate(-10px, 0)}
                    100%{transform: translate(0, 0)}
                }

                .triangle-float1 {
                    animation: float1 5s infinite;
                }

                @keyframes float2 {
                    0%{transform: translate(0, 0)}
                    50%{transform: translate(-5px, -5px)}
                    100%{transform: translate(0, 0)}
                }

                .triangle-float2 {
                    animation: float2 4s infinite;
                }

                @keyframes float3 {
                    0%{transform: translate(0, 0)}
                    50%{transform: translate(0, -10px)}
                    100%{transform: translate(0, 0)}
                }

                .triangle-float3 {
                    animation: float3 6s infinite;
                }
            </style></defs></svg>