<svg xmlns="http://www.w3.org/2000/svg" version="1.1" xmlns:xlink="http://www.w3.org/1999/xlink" xmlns:svgjs="http://svgjs.dev/svgjs" width="1440" height="560" preserveAspectRatio="none" viewBox="0 0 1440 560"><g mask="url(&quot;#SvgjsMask1213&quot;)" fill="none"><rect width="1440" height="560" x="0" y="0" fill="url(&quot;#SvgjsLinearGradient1214&quot;)"></rect><path d="M-80.92 362.4L-80.92 362.4" stroke="rgba(111, 168, 220, 1)" stroke-width="1.5"></path><path d="M-80.92 362.4L-103.3 494.43" stroke="rgba(111, 168, 220, 1)" stroke-width="1.5"></path><path d="M-80.92 362.4L83.06 377.51" stroke="rgba(111, 168, 220, 1)" stroke-width="1.5"></path><path d="M-103.3 494.43L-103.3 494.43" stroke="rgba(111, 168, 220, 1)" stroke-width="1.5"></path><path d="M-103.3 494.43L54.83 535.04" stroke="rgba(111, 168, 220, 1)" stroke-width="1.5"></path><path d="M-103.3 494.43L83.06 377.51" stroke="rgba(111, 168, 220, 1)" stroke-width="1.5"></path><path d="M-103.3 494.43L-51.75 710.91" stroke="rgba(111, 168, 220, 1)" stroke-width="1.5"></path><path d="M-103.3 494.43L92.96 672.49" stroke="rgba(111, 168, 220, 1)" stroke-width="1.5"></path><path d="M-103.3 494.43L206.96 640.31" stroke="rgba(111, 168, 220, 1)" stroke-width="1.5"></path><path d="M-51.75 710.91L-51.75 710.91" stroke="rgba(111, 168, 220, 1)" stroke-width="1.5"></path><path d="M-51.75 710.91L92.96 672.49" stroke="rgba(111, 168, 220, 1)" stroke-width="1.5"></path><path d="M-51.75 710.91L54.83 535.04" stroke="rgba(111, 168, 220, 1)" stroke-width="1.5"></path><path d="M-51.75 710.91L206.96 640.31" stroke="rgba(111, 168, 220, 1)" stroke-width="1.5"></path><path d="M-51.75 710.91L245.52 549.85" stroke="rgba(111, 168, 220, 1)" stroke-width="1.5"></path><path d="M83.06 377.51L83.06 377.51" stroke="rgba(111, 168, 220, 1)" stroke-width="1.5"></path><path d="M83.06 377.51L54.83 535.04" stroke="rgba(111, 168, 220, 1)" stroke-width="1.5"></path><path d="M83.06 377.51L244.58 390.36" stroke="rgba(111, 168, 220, 1)" stroke-width="1.5"></path><path d="M54.83 535.04L54.83 535.04" stroke="rgba(111, 168, 220, 1)" stroke-width="1.5"></path><path d="M54.83 535.04L92.96 672.49" stroke="rgba(111, 168, 220, 1)" stroke-width="1.5"></path><path d="M92.96 672.49L92.96 672.49" stroke="rgba(111, 168, 220, 1)" stroke-width="1.5"></path><path d="M92.96 672.49L206.96 640.31" stroke="rgba(111, 168, 220, 1)" stroke-width="1.5"></path><path d="M92.96 672.49L245.52 549.85" stroke="rgba(111, 168, 220, 1)" stroke-width="1.5"></path><path d="M92.96 672.49L342.52 665.63" stroke="rgba(111, 168, 220, 1)" stroke-width="1.5"></path><path d="M244.58 390.36L244.58 390.36" stroke="rgba(111, 168, 220, 1)" stroke-width="1.5"></path><path d="M244.58 390.36L384.56 377.27" stroke="rgba(111, 168, 220, 1)" stroke-width="1.5"></path><path d="M244.58 390.36L245.52 549.85" stroke="rgba(111, 168, 220, 1)" stroke-width="1.5"></path><path d="M244.58 390.36L351.95 558.42" stroke="rgba(111, 168, 220, 1)" stroke-width="1.5"></path><path d="M244.58 390.36L54.83 535.04" stroke="rgba(111, 168, 220, 1)" stroke-width="1.5"></path><path d="M244.58 390.36L206.96 640.31" stroke="rgba(111, 168, 220, 1)" stroke-width="1.5"></path><path d="M245.52 549.85L245.52 549.85" stroke="rgba(111, 168, 220, 1)" stroke-width="1.5"></path><path d="M245.52 549.85L206.96 640.31" stroke="rgba(111, 168, 220, 1)" stroke-width="1.5"></path><path d="M245.52 549.85L351.95 558.42" stroke="rgba(111, 168, 220, 1)" stroke-width="1.5"></path><path d="M206.96 640.31L206.96 640.31" stroke="rgba(111, 168, 220, 1)" stroke-width="1.5"></path><path d="M206.96 640.31L342.52 665.63" stroke="rgba(111, 168, 220, 1)" stroke-width="1.5"></path><path d="M384.56 377.27L384.56 377.27" stroke="rgba(111, 168, 220, 1)" stroke-width="1.5"></path><path d="M384.56 377.27L499.61 370.38" stroke="rgba(111, 168, 220, 1)" stroke-width="1.5"></path><path d="M384.56 377.27L351.95 558.42" stroke="rgba(111, 168, 220, 1)" stroke-width="1.5"></path><path d="M351.95 558.42L351.95 558.42" stroke="rgba(111, 168, 220, 1)" stroke-width="1.5"></path><path d="M351.95 558.42L342.52 665.63" stroke="rgba(111, 168, 220, 1)" stroke-width="1.5"></path><path d="M351.95 558.42L206.96 640.31" stroke="rgba(111, 168, 220, 1)" stroke-width="1.5"></path><path d="M351.95 558.42L557.91 515.84" stroke="rgba(111, 168, 220, 1)" stroke-width="1.5"></path><path d="M342.52 665.63L342.52 665.63" stroke="rgba(111, 168, 220, 1)" stroke-width="1.5"></path><path d="M342.52 665.63L245.52 549.85" stroke="rgba(111, 168, 220, 1)" stroke-width="1.5"></path><path d="M499.61 370.38L499.61 370.38" stroke="rgba(111, 168, 220, 1)" stroke-width="1.5"></path><path d="M499.61 370.38L641.52 394.57" stroke="rgba(111, 168, 220, 1)" stroke-width="1.5"></path><path d="M499.61 370.38L557.91 515.84" stroke="rgba(111, 168, 220, 1)" stroke-width="1.5"></path><path d="M499.61 370.38L669.71 258.7" stroke="rgba(111, 168, 220, 1)" stroke-width="1.5"></path><path d="M499.61 370.38L351.95 558.42" stroke="rgba(111, 168, 220, 1)" stroke-width="1.5"></path><path d="M557.91 515.84L557.91 515.84" stroke="rgba(111, 168, 220, 1)" stroke-width="1.5"></path><path d="M557.91 515.84L641.52 394.57" stroke="rgba(111, 168, 220, 1)" stroke-width="1.5"></path><path d="M557.91 515.84L706.87 499.81" stroke="rgba(111, 168, 220, 1)" stroke-width="1.5"></path><path d="M557.91 515.84L537.2 702.53" stroke="rgba(111, 168, 220, 1)" stroke-width="1.5"></path><path d="M557.91 515.84L384.56 377.27" stroke="rgba(111, 168, 220, 1)" stroke-width="1.5"></path><path d="M537.2 702.53L537.2 702.53" stroke="rgba(111, 168, 220, 1)" stroke-width="1.5"></path><path d="M537.2 702.53L683.08 705.84" stroke="rgba(111, 168, 220, 1)" stroke-width="1.5"></path><path d="M537.2 702.53L342.52 665.63" stroke="rgba(111, 168, 220, 1)" stroke-width="1.5"></path><path d="M669.71 258.7L669.71 258.7" stroke="rgba(111, 168, 220, 1)" stroke-width="1.5"></path><path d="M669.71 258.7L641.52 394.57" stroke="rgba(111, 168, 220, 1)" stroke-width="1.5"></path><path d="M641.52 394.57L641.52 394.57" stroke="rgba(111, 168, 220, 1)" stroke-width="1.5"></path><path d="M641.52 394.57L706.87 499.81" stroke="rgba(111, 168, 220, 1)" stroke-width="1.5"></path><path d="M706.87 499.81L706.87 499.81" stroke="rgba(111, 168, 220, 1)" stroke-width="1.5"></path><path d="M683.08 705.84L683.08 705.84" stroke="rgba(111, 168, 220, 1)" stroke-width="1.5"></path><path d="M683.08 705.84L834.32 670.98" stroke="rgba(111, 168, 220, 1)" stroke-width="1.5"></path><path d="M683.08 705.84L706.87 499.81" stroke="rgba(111, 168, 220, 1)" stroke-width="1.5"></path><path d="M683.08 705.84L557.91 515.84" stroke="rgba(111, 168, 220, 1)" stroke-width="1.5"></path><path d="M852.45 105.27L852.45 105.27" stroke="rgba(111, 168, 220, 1)" stroke-width="1.5"></path><path d="M852.45 105.27L861.09 229.61" stroke="rgba(111, 168, 220, 1)" stroke-width="1.5"></path><path d="M852.45 105.27L990.86 61.11" stroke="rgba(111, 168, 220, 1)" stroke-width="1.5"></path><path d="M852.45 105.27L952.53 222.31" stroke="rgba(111, 168, 220, 1)" stroke-width="1.5"></path><path d="M852.45 105.27L992.92 -55.71" stroke="rgba(111, 168, 220, 1)" stroke-width="1.5"></path><path d="M852.45 105.27L669.71 258.7" stroke="rgba(111, 168, 220, 1)" stroke-width="1.5"></path><path d="M861.09 229.61L861.09 229.61" stroke="rgba(111, 168, 220, 1)" stroke-width="1.5"></path><path d="M861.09 229.61L952.53 222.31" stroke="rgba(111, 168, 220, 1)" stroke-width="1.5"></path><path d="M840.22 363.89L840.22 363.89" stroke="rgba(111, 168, 220, 1)" stroke-width="1.5"></path><path d="M840.22 363.89L967.99 341.35" stroke="rgba(111, 168, 220, 1)" stroke-width="1.5"></path><path d="M840.22 363.89L861.09 229.61" stroke="rgba(111, 168, 220, 1)" stroke-width="1.5"></path><path d="M840.22 363.89L952.53 222.31" stroke="rgba(111, 168, 220, 1)" stroke-width="1.5"></path><path d="M840.22 363.89L706.87 499.81" stroke="rgba(111, 168, 220, 1)" stroke-width="1.5"></path><path d="M853.53 554.14L853.53 554.14" stroke="rgba(111, 168, 220, 1)" stroke-width="1.5"></path><path d="M853.53 554.14L969.29 555.64" stroke="rgba(111, 168, 220, 1)" stroke-width="1.5"></path><path d="M853.53 554.14L834.32 670.98" stroke="rgba(111, 168, 220, 1)" stroke-width="1.5"></path><path d="M853.53 554.14L706.87 499.81" stroke="rgba(111, 168, 220, 1)" stroke-width="1.5"></path><path d="M853.53 554.14L992.76 650.61" stroke="rgba(111, 168, 220, 1)" stroke-width="1.5"></path><path d="M853.53 554.14L840.22 363.89" stroke="rgba(111, 168, 220, 1)" stroke-width="1.5"></path><path d="M853.53 554.14L683.08 705.84" stroke="rgba(111, 168, 220, 1)" stroke-width="1.5"></path><path d="M834.32 670.98L834.32 670.98" stroke="rgba(111, 168, 220, 1)" stroke-width="1.5"></path><path d="M992.92 -55.71L992.92 -55.71" stroke="rgba(111, 168, 220, 1)" stroke-width="1.5"></path><path d="M992.92 -55.71L990.86 61.11" stroke="rgba(111, 168, 220, 1)" stroke-width="1.5"></path><path d="M992.92 -55.71L1158.48 -93.45" stroke="rgba(111, 168, 220, 1)" stroke-width="1.5"></path><path d="M992.92 -55.71L1123.99 108.58" stroke="rgba(111, 168, 220, 1)" stroke-width="1.5"></path><path d="M990.86 61.11L990.86 61.11" stroke="rgba(111, 168, 220, 1)" stroke-width="1.5"></path><path d="M990.86 61.11L1123.99 108.58" stroke="rgba(111, 168, 220, 1)" stroke-width="1.5"></path><path d="M990.86 61.11L952.53 222.31" stroke="rgba(111, 168, 220, 1)" stroke-width="1.5"></path><path d="M990.86 61.11L861.09 229.61" stroke="rgba(111, 168, 220, 1)" stroke-width="1.5"></path><path d="M952.53 222.31L952.53 222.31" stroke="rgba(111, 168, 220, 1)" stroke-width="1.5"></path><path d="M952.53 222.31L967.99 341.35" stroke="rgba(111, 168, 220, 1)" stroke-width="1.5"></path><path d="M967.99 341.35L967.99 341.35" stroke="rgba(111, 168, 220, 1)" stroke-width="1.5"></path><path d="M967.99 341.35L1096.51 394.8" stroke="rgba(111, 168, 220, 1)" stroke-width="1.5"></path><path d="M967.99 341.35L861.09 229.61" stroke="rgba(111, 168, 220, 1)" stroke-width="1.5"></path><path d="M969.29 555.64L969.29 555.64" stroke="rgba(111, 168, 220, 1)" stroke-width="1.5"></path><path d="M969.29 555.64L992.76 650.61" stroke="rgba(111, 168, 220, 1)" stroke-width="1.5"></path><path d="M969.29 555.64L1089.56 490.42" stroke="rgba(111, 168, 220, 1)" stroke-width="1.5"></path><path d="M969.29 555.64L834.32 670.98" stroke="rgba(111, 168, 220, 1)" stroke-width="1.5"></path><path d="M969.29 555.64L1096.51 394.8" stroke="rgba(111, 168, 220, 1)" stroke-width="1.5"></path><path d="M992.76 650.61L992.76 650.61" stroke="rgba(111, 168, 220, 1)" stroke-width="1.5"></path><path d="M992.76 650.61L834.32 670.98" stroke="rgba(111, 168, 220, 1)" stroke-width="1.5"></path><path d="M992.76 650.61L1151.41 680.34" stroke="rgba(111, 168, 220, 1)" stroke-width="1.5"></path><path d="M1158.48 -93.45L1158.48 -93.45" stroke="rgba(111, 168, 220, 1)" stroke-width="1.5"></path><path d="M1158.48 -93.45L1264.09 -103.23" stroke="rgba(111, 168, 220, 1)" stroke-width="1.5"></path><path d="M1158.48 -93.45L1273.58 73.58" stroke="rgba(111, 168, 220, 1)" stroke-width="1.5"></path><path d="M1158.48 -93.45L1123.99 108.58" stroke="rgba(111, 168, 220, 1)" stroke-width="1.5"></path><path d="M1123.99 108.58L1123.99 108.58" stroke="rgba(111, 168, 220, 1)" stroke-width="1.5"></path><path d="M1123.99 108.58L1148.3 226.39" stroke="rgba(111, 168, 220, 1)" stroke-width="1.5"></path><path d="M1123.99 108.58L1273.58 73.58" stroke="rgba(111, 168, 220, 1)" stroke-width="1.5"></path><path d="M1123.99 108.58L952.53 222.31" stroke="rgba(111, 168, 220, 1)" stroke-width="1.5"></path><path d="M1148.3 226.39L1148.3 226.39" stroke="rgba(111, 168, 220, 1)" stroke-width="1.5"></path><path d="M1148.3 226.39L1308.31 231.43" stroke="rgba(111, 168, 220, 1)" stroke-width="1.5"></path><path d="M1148.3 226.39L1096.51 394.8" stroke="rgba(111, 168, 220, 1)" stroke-width="1.5"></path><path d="M1148.3 226.39L952.53 222.31" stroke="rgba(111, 168, 220, 1)" stroke-width="1.5"></path><path d="M1148.3 226.39L1273.58 73.58" stroke="rgba(111, 168, 220, 1)" stroke-width="1.5"></path><path d="M1096.51 394.8L1096.51 394.8" stroke="rgba(111, 168, 220, 1)" stroke-width="1.5"></path><path d="M1096.51 394.8L1089.56 490.42" stroke="rgba(111, 168, 220, 1)" stroke-width="1.5"></path><path d="M1089.56 490.42L1089.56 490.42" stroke="rgba(111, 168, 220, 1)" stroke-width="1.5"></path><path d="M1089.56 490.42L992.76 650.61" stroke="rgba(111, 168, 220, 1)" stroke-width="1.5"></path><path d="M1089.56 490.42L967.99 341.35" stroke="rgba(111, 168, 220, 1)" stroke-width="1.5"></path><path d="M1089.56 490.42L1151.41 680.34" stroke="rgba(111, 168, 220, 1)" stroke-width="1.5"></path><path d="M1089.56 490.42L1289.16 513.1" stroke="rgba(111, 168, 220, 1)" stroke-width="1.5"></path><path d="M1151.41 680.34L1151.41 680.34" stroke="rgba(111, 168, 220, 1)" stroke-width="1.5"></path><path d="M1151.41 680.34L1262.18 684.01" stroke="rgba(111, 168, 220, 1)" stroke-width="1.5"></path><path d="M1264.09 -103.23L1264.09 -103.23" stroke="rgba(111, 168, 220, 1)" stroke-width="1.5"></path><path d="M1264.09 -103.23L1389.08 -67.31" stroke="rgba(111, 168, 220, 1)" stroke-width="1.5"></path><path d="M1264.09 -103.23L1273.58 73.58" stroke="rgba(111, 168, 220, 1)" stroke-width="1.5"></path><path d="M1264.09 -103.23L1437.14 81.96" stroke="rgba(111, 168, 220, 1)" stroke-width="1.5"></path><path d="M1264.09 -103.23L1123.99 108.58" stroke="rgba(111, 168, 220, 1)" stroke-width="1.5"></path><path d="M1264.09 -103.23L992.92 -55.71" stroke="rgba(111, 168, 220, 1)" stroke-width="1.5"></path><path d="M1273.58 73.58L1273.58 73.58" stroke="rgba(111, 168, 220, 1)" stroke-width="1.5"></path><path d="M1273.58 73.58L1308.31 231.43" stroke="rgba(111, 168, 220, 1)" stroke-width="1.5"></path><path d="M1273.58 73.58L1437.14 81.96" stroke="rgba(111, 168, 220, 1)" stroke-width="1.5"></path><path d="M1308.31 231.43L1308.31 231.43" stroke="rgba(111, 168, 220, 1)" stroke-width="1.5"></path><path d="M1308.31 231.43L1440.09 195.79" stroke="rgba(111, 168, 220, 1)" stroke-width="1.5"></path><path d="M1285.39 382.68L1285.39 382.68" stroke="rgba(111, 168, 220, 1)" stroke-width="1.5"></path><path d="M1285.39 382.68L1413.61 394.6" stroke="rgba(111, 168, 220, 1)" stroke-width="1.5"></path><path d="M1285.39 382.68L1289.16 513.1" stroke="rgba(111, 168, 220, 1)" stroke-width="1.5"></path><path d="M1285.39 382.68L1308.31 231.43" stroke="rgba(111, 168, 220, 1)" stroke-width="1.5"></path><path d="M1285.39 382.68L1096.51 394.8" stroke="rgba(111, 168, 220, 1)" stroke-width="1.5"></path><path d="M1289.16 513.1L1289.16 513.1" stroke="rgba(111, 168, 220, 1)" stroke-width="1.5"></path><path d="M1289.16 513.1L1419.15 537.47" stroke="rgba(111, 168, 220, 1)" stroke-width="1.5"></path><path d="M1289.16 513.1L1413.61 394.6" stroke="rgba(111, 168, 220, 1)" stroke-width="1.5"></path><path d="M1262.18 684.01L1262.18 684.01" stroke="rgba(111, 168, 220, 1)" stroke-width="1.5"></path><path d="M1262.18 684.01L1289.16 513.1" stroke="rgba(111, 168, 220, 1)" stroke-width="1.5"></path><path d="M1389.08 -67.31L1389.08 -67.31" stroke="rgba(111, 168, 220, 1)" stroke-width="1.5"></path><path d="M1389.08 -67.31L1437.14 81.96" stroke="rgba(111, 168, 220, 1)" stroke-width="1.5"></path><path d="M1389.08 -67.31L1273.58 73.58" stroke="rgba(111, 168, 220, 1)" stroke-width="1.5"></path><path d="M1389.08 -67.31L1602.27 -110.4" stroke="rgba(111, 168, 220, 1)" stroke-width="1.5"></path><path d="M1437.14 81.96L1437.14 81.96" stroke="rgba(111, 168, 220, 1)" stroke-width="1.5"></path><path d="M1437.14 81.96L1440.09 195.79" stroke="rgba(111, 168, 220, 1)" stroke-width="1.5"></path><path d="M1437.14 81.96L1569.52 110.41" stroke="rgba(111, 168, 220, 1)" stroke-width="1.5"></path><path d="M1440.09 195.79L1440.09 195.79" stroke="rgba(111, 168, 220, 1)" stroke-width="1.5"></path><path d="M1440.09 195.79L1569.52 110.41" stroke="rgba(111, 168, 220, 1)" stroke-width="1.5"></path><path d="M1440.09 195.79L1608.05 243.98" stroke="rgba(111, 168, 220, 1)" stroke-width="1.5"></path><path d="M1440.09 195.79L1413.61 394.6" stroke="rgba(111, 168, 220, 1)" stroke-width="1.5"></path><path d="M1413.61 394.6L1413.61 394.6" stroke="rgba(111, 168, 220, 1)" stroke-width="1.5"></path><path d="M1413.61 394.6L1548.47 380.11" stroke="rgba(111, 168, 220, 1)" stroke-width="1.5"></path><path d="M1413.61 394.6L1419.15 537.47" stroke="rgba(111, 168, 220, 1)" stroke-width="1.5"></path><path d="M1413.61 394.6L1308.31 231.43" stroke="rgba(111, 168, 220, 1)" stroke-width="1.5"></path><path d="M1419.15 537.47L1419.15 537.47" stroke="rgba(111, 168, 220, 1)" stroke-width="1.5"></path><path d="M1419.15 537.47L1453.09 660.52" stroke="rgba(111, 168, 220, 1)" stroke-width="1.5"></path><path d="M1453.09 660.52L1453.09 660.52" stroke="rgba(111, 168, 220, 1)" stroke-width="1.5"></path><path d="M1453.09 660.52L1598.5 676.7" stroke="rgba(111, 168, 220, 1)" stroke-width="1.5"></path><path d="M1453.09 660.52L1573.46 539.06" stroke="rgba(111, 168, 220, 1)" stroke-width="1.5"></path><path d="M1453.09 660.52L1262.18 684.01" stroke="rgba(111, 168, 220, 1)" stroke-width="1.5"></path><path d="M1602.27 -110.4L1602.27 -110.4" stroke="rgba(111, 168, 220, 1)" stroke-width="1.5"></path><path d="M1602.27 -110.4L1569.52 110.41" stroke="rgba(111, 168, 220, 1)" stroke-width="1.5"></path><path d="M1602.27 -110.4L1437.14 81.96" stroke="rgba(111, 168, 220, 1)" stroke-width="1.5"></path><path d="M1602.27 -110.4L1264.09 -103.23" stroke="rgba(111, 168, 220, 1)" stroke-width="1.5"></path><path d="M1569.52 110.41L1569.52 110.41" stroke="rgba(111, 168, 220, 1)" stroke-width="1.5"></path><path d="M1569.52 110.41L1608.05 243.98" stroke="rgba(111, 168, 220, 1)" stroke-width="1.5"></path><path d="M1569.52 110.41L1389.08 -67.31" stroke="rgba(111, 168, 220, 1)" stroke-width="1.5"></path><path d="M1608.05 243.98L1608.05 243.98" stroke="rgba(111, 168, 220, 1)" stroke-width="1.5"></path><path d="M1608.05 243.98L1548.47 380.11" stroke="rgba(111, 168, 220, 1)" stroke-width="1.5"></path><path d="M1608.05 243.98L1437.14 81.96" stroke="rgba(111, 168, 220, 1)" stroke-width="1.5"></path><path d="M1548.47 380.11L1548.47 380.11" stroke="rgba(111, 168, 220, 1)" stroke-width="1.5"></path><path d="M1548.47 380.11L1573.46 539.06" stroke="rgba(111, 168, 220, 1)" stroke-width="1.5"></path><path d="M1573.46 539.06L1573.46 539.06" stroke="rgba(111, 168, 220, 1)" stroke-width="1.5"></path><path d="M1573.46 539.06L1598.5 676.7" stroke="rgba(111, 168, 220, 1)" stroke-width="1.5"></path><path d="M1573.46 539.06L1419.15 537.47" stroke="rgba(111, 168, 220, 1)" stroke-width="1.5"></path><path d="M1573.46 539.06L1413.61 394.6" stroke="rgba(111, 168, 220, 1)" stroke-width="1.5"></path><path d="M1598.5 676.7L1598.5 676.7" stroke="rgba(111, 168, 220, 1)" stroke-width="1.5"></path><path d="M1598.5 676.7L1419.15 537.47" stroke="rgba(111, 168, 220, 1)" stroke-width="1.5"></path><path d="M1598.5 676.7L1548.47 380.11" stroke="rgba(111, 168, 220, 1)" stroke-width="1.5"></path><path d="M1598.5 676.7L1262.18 684.01" stroke="rgba(111, 168, 220, 1)" stroke-width="1.5"></path><path d="M1598.5 676.7L1413.61 394.6" stroke="rgba(111, 168, 220, 1)" stroke-width="1.5"></path><circle r="5" cx="-80.92" cy="362.4" fill="rgba(111, 168, 220, 1)"></circle><circle r="5" cx="-103.3" cy="494.43" fill="rgba(111, 168, 220, 1)"></circle><circle r="5" cx="-51.75" cy="710.91" fill="rgba(111, 168, 220, 1)"></circle><circle r="5" cx="83.06" cy="377.51" fill="rgba(111, 168, 220, 1)"></circle><circle r="5" cx="54.83" cy="535.04" fill="rgba(111, 168, 220, 1)"></circle><circle r="5" cx="92.96" cy="672.49" fill="rgba(111, 168, 220, 1)"></circle><circle r="5" cx="244.58" cy="390.36" fill="rgba(111, 168, 220, 1)"></circle><circle r="5" cx="245.52" cy="549.85" fill="rgba(111, 168, 220, 1)"></circle><circle r="5" cx="206.96" cy="640.31" fill="rgba(111, 168, 220, 1)"></circle><circle r="5" cx="384.56" cy="377.27" fill="rgba(111, 168, 220, 1)"></circle><circle r="5" cx="351.95" cy="558.42" fill="rgba(111, 168, 220, 1)"></circle><circle r="5" cx="342.52" cy="665.63" fill="rgba(111, 168, 220, 1)"></circle><circle r="5" cx="499.61" cy="370.38" fill="rgba(111, 168, 220, 1)"></circle><circle r="5" cx="557.91" cy="515.84" fill="rgba(111, 168, 220, 1)"></circle><circle r="5" cx="537.2" cy="702.53" fill="rgba(111, 168, 220, 1)"></circle><circle r="5" cx="669.71" cy="258.7" fill="rgba(111, 168, 220, 1)"></circle><circle r="5" cx="641.52" cy="394.57" fill="rgba(111, 168, 220, 1)"></circle><circle r="5" cx="706.87" cy="499.81" fill="rgba(111, 168, 220, 1)"></circle><circle r="5" cx="683.08" cy="705.84" fill="rgba(111, 168, 220, 1)"></circle><circle r="5" cx="852.45" cy="105.27" fill="rgba(111, 168, 220, 1)"></circle><circle r="5" cx="861.09" cy="229.61" fill="rgba(111, 168, 220, 1)"></circle><circle r="5" cx="840.22" cy="363.89" fill="rgba(111, 168, 220, 1)"></circle><circle r="5" cx="853.53" cy="554.14" fill="rgba(111, 168, 220, 1)"></circle><circle r="5" cx="834.32" cy="670.98" fill="rgba(111, 168, 220, 1)"></circle><circle r="5" cx="992.92" cy="-55.71" fill="rgba(111, 168, 220, 1)"></circle><circle r="5" cx="990.86" cy="61.11" fill="rgba(111, 168, 220, 1)"></circle><circle r="5" cx="952.53" cy="222.31" fill="rgba(111, 168, 220, 1)"></circle><circle r="5" cx="967.99" cy="341.35" fill="rgba(111, 168, 220, 1)"></circle><circle r="5" cx="969.29" cy="555.64" fill="rgba(111, 168, 220, 1)"></circle><circle r="5" cx="992.76" cy="650.61" fill="rgba(111, 168, 220, 1)"></circle><circle r="5" cx="1158.48" cy="-93.45" fill="rgba(111, 168, 220, 1)"></circle><circle r="5" cx="1123.99" cy="108.58" fill="rgba(111, 168, 220, 1)"></circle><circle r="5" cx="1148.3" cy="226.39" fill="rgba(111, 168, 220, 1)"></circle><circle r="5" cx="1096.51" cy="394.8" fill="rgba(111, 168, 220, 1)"></circle><circle r="5" cx="1089.56" cy="490.42" fill="rgba(111, 168, 220, 1)"></circle><circle r="5" cx="1151.41" cy="680.34" fill="rgba(111, 168, 220, 1)"></circle><circle r="5" cx="1264.09" cy="-103.23" fill="rgba(111, 168, 220, 1)"></circle><circle r="5" cx="1273.58" cy="73.58" fill="rgba(111, 168, 220, 1)"></circle><circle r="5" cx="1308.31" cy="231.43" fill="rgba(111, 168, 220, 1)"></circle><circle r="5" cx="1285.39" cy="382.68" fill="rgba(111, 168, 220, 1)"></circle><circle r="5" cx="1289.16" cy="513.1" fill="rgba(111, 168, 220, 1)"></circle><circle r="5" cx="1262.18" cy="684.01" fill="rgba(111, 168, 220, 1)"></circle><circle r="5" cx="1389.08" cy="-67.31" fill="rgba(111, 168, 220, 1)"></circle><circle r="5" cx="1437.14" cy="81.96" fill="rgba(111, 168, 220, 1)"></circle><circle r="5" cx="1440.09" cy="195.79" fill="rgba(111, 168, 220, 1)"></circle><circle r="5" cx="1413.61" cy="394.6" fill="rgba(111, 168, 220, 1)"></circle><circle r="5" cx="1419.15" cy="537.47" fill="rgba(111, 168, 220, 1)"></circle><circle r="5" cx="1453.09" cy="660.52" fill="rgba(111, 168, 220, 1)"></circle><circle r="5" cx="1602.27" cy="-110.4" fill="rgba(111, 168, 220, 1)"></circle><circle r="5" cx="1569.52" cy="110.41" fill="rgba(111, 168, 220, 1)"></circle><circle r="5" cx="1608.05" cy="243.98" fill="rgba(111, 168, 220, 1)"></circle><circle r="5" cx="1548.47" cy="380.11" fill="rgba(111, 168, 220, 1)"></circle><circle r="5" cx="1573.46" cy="539.06" fill="rgba(111, 168, 220, 1)"></circle><circle r="5" cx="1598.5" cy="676.7" fill="rgba(111, 168, 220, 1)"></circle><path d="M510.32 675.56L510.32 675.56" stroke="hsl(208.5, 86.2%, 40.5%)" stroke-width="1.5"></path><path d="M510.32 675.56L547.25 534.1" stroke="hsl(208.5, 86.2%, 40.5%)" stroke-width="1.5"></path><path d="M510.32 675.56L676.48 638.45" stroke="hsl(208.5, 86.2%, 40.5%)" stroke-width="1.5"></path><path d="M510.32 675.56L358.7 536.95" stroke="hsl(208.5, 86.2%, 40.5%)" stroke-width="1.5"></path><path d="M510.32 675.56L686.91 559.94" stroke="hsl(208.5, 86.2%, 40.5%)" stroke-width="1.5"></path><path d="M510.32 675.56L802.82 504.35" stroke="hsl(208.5, 86.2%, 40.5%)" stroke-width="1.5"></path><path d="M510.32 675.56L856.34 648.02" stroke="hsl(208.5, 86.2%, 40.5%)" stroke-width="1.5"></path><path d="M676.48 638.45L676.48 638.45" stroke="hsl(208.5, 86.2%, 40.5%)" stroke-width="1.5"></path><path d="M676.48 638.45L686.91 559.94" stroke="hsl(208.5, 86.2%, 40.5%)" stroke-width="1.5"></path><path d="M676.48 638.45L547.25 534.1" stroke="hsl(208.5, 86.2%, 40.5%)" stroke-width="1.5"></path><path d="M676.48 638.45L856.34 648.02" stroke="hsl(208.5, 86.2%, 40.5%)" stroke-width="1.5"></path><path d="M1284.08 203.09L1284.08 203.09" stroke="hsl(208.5, 86.2%, 40.5%)" stroke-width="1.5"></path><path d="M1284.08 203.09L1245.92 92.17" stroke="hsl(208.5, 86.2%, 40.5%)" stroke-width="1.5"></path><path d="M1284.08 203.09L1145.88 197.79" stroke="hsl(208.5, 86.2%, 40.5%)" stroke-width="1.5"></path><path d="M1284.08 203.09L1396.7 77.98" stroke="hsl(208.5, 86.2%, 40.5%)" stroke-width="1.5"></path><path d="M1284.08 203.09L1455.19 243.46" stroke="hsl(208.5, 86.2%, 40.5%)" stroke-width="1.5"></path><path d="M1455.19 243.46L1455.19 243.46" stroke="hsl(208.5, 86.2%, 40.5%)" stroke-width="1.5"></path><path d="M1455.19 243.46L1576.97 248.77" stroke="hsl(208.5, 86.2%, 40.5%)" stroke-width="1.5"></path><path d="M1455.19 243.46L1393.47 374.85" stroke="hsl(208.5, 86.2%, 40.5%)" stroke-width="1.5"></path><path d="M1579.93 -53.83L1579.93 -53.83" stroke="hsl(208.5, 86.2%, 40.5%)" stroke-width="1.5"></path><path d="M1579.93 -53.83L1611.79 82.68" stroke="hsl(208.5, 86.2%, 40.5%)" stroke-width="1.5"></path><path d="M1579.93 -53.83L1396.7 77.98" stroke="hsl(208.5, 86.2%, 40.5%)" stroke-width="1.5"></path><path d="M1579.93 -53.83L1311.86 -91.18" stroke="hsl(208.5, 86.2%, 40.5%)" stroke-width="1.5"></path><path d="M1579.93 -53.83L1576.97 248.77" stroke="hsl(208.5, 86.2%, 40.5%)" stroke-width="1.5"></path><path d="M1579.93 -53.83L1455.19 243.46" stroke="hsl(208.5, 86.2%, 40.5%)" stroke-width="1.5"></path><path d="M1579.93 -53.83L1245.92 92.17" stroke="hsl(208.5, 86.2%, 40.5%)" stroke-width="1.5"></path><path d="M-109.24 513.06L-109.24 513.06" stroke="hsl(208.5, 86.2%, 40.5%)" stroke-width="1.5"></path><path d="M-109.24 513.06L-61.39 664.64" stroke="hsl(208.5, 86.2%, 40.5%)" stroke-width="1.5"></path><path d="M-109.24 513.06L76.63 548.36" stroke="hsl(208.5, 86.2%, 40.5%)" stroke-width="1.5"></path><path d="M-109.24 513.06L53.36 706.81" stroke="hsl(208.5, 86.2%, 40.5%)" stroke-width="1.5"></path><path d="M-61.39 664.64L-61.39 664.64" stroke="hsl(208.5, 86.2%, 40.5%)" stroke-width="1.5"></path><path d="M-61.39 664.64L53.36 706.81" stroke="hsl(208.5, 86.2%, 40.5%)" stroke-width="1.5"></path><path d="M-61.39 664.64L76.63 548.36" stroke="hsl(208.5, 86.2%, 40.5%)" stroke-width="1.5"></path><path d="M-61.39 664.64L358.7 536.95" stroke="hsl(208.5, 86.2%, 40.5%)" stroke-width="1.5"></path><path d="M-61.39 664.64L510.32 675.56" stroke="hsl(208.5, 86.2%, 40.5%)" stroke-width="1.5"></path><path d="M76.63 548.36L76.63 548.36" stroke="hsl(208.5, 86.2%, 40.5%)" stroke-width="1.5"></path><path d="M76.63 548.36L53.36 706.81" stroke="hsl(208.5, 86.2%, 40.5%)" stroke-width="1.5"></path><path d="M53.36 706.81L53.36 706.81" stroke="hsl(208.5, 86.2%, 40.5%)" stroke-width="1.5"></path><path d="M53.36 706.81L358.7 536.95" stroke="hsl(208.5, 86.2%, 40.5%)" stroke-width="1.5"></path><path d="M53.36 706.81L510.32 675.56" stroke="hsl(208.5, 86.2%, 40.5%)" stroke-width="1.5"></path><path d="M53.36 706.81L547.25 534.1" stroke="hsl(208.5, 86.2%, 40.5%)" stroke-width="1.5"></path><path d="M358.7 536.95L358.7 536.95" stroke="hsl(208.5, 86.2%, 40.5%)" stroke-width="1.5"></path><path d="M358.7 536.95L547.25 534.1" stroke="hsl(208.5, 86.2%, 40.5%)" stroke-width="1.5"></path><path d="M358.7 536.95L76.63 548.36" stroke="hsl(208.5, 86.2%, 40.5%)" stroke-width="1.5"></path><path d="M358.7 536.95L686.91 559.94" stroke="hsl(208.5, 86.2%, 40.5%)" stroke-width="1.5"></path><path d="M547.25 534.1L547.25 534.1" stroke="hsl(208.5, 86.2%, 40.5%)" stroke-width="1.5"></path><path d="M547.25 534.1L686.91 559.94" stroke="hsl(208.5, 86.2%, 40.5%)" stroke-width="1.5"></path><path d="M684 374.11L684 374.11" stroke="hsl(208.5, 86.2%, 40.5%)" stroke-width="1.5"></path><path d="M684 374.11L802.82 504.35" stroke="hsl(208.5, 86.2%, 40.5%)" stroke-width="1.5"></path><path d="M684 374.11L686.91 559.94" stroke="hsl(208.5, 86.2%, 40.5%)" stroke-width="1.5"></path><path d="M684 374.11L547.25 534.1" stroke="hsl(208.5, 86.2%, 40.5%)" stroke-width="1.5"></path><path d="M684 374.11L676.48 638.45" stroke="hsl(208.5, 86.2%, 40.5%)" stroke-width="1.5"></path><path d="M684 374.11L974.03 398.41" stroke="hsl(208.5, 86.2%, 40.5%)" stroke-width="1.5"></path><path d="M686.91 559.94L686.91 559.94" stroke="hsl(208.5, 86.2%, 40.5%)" stroke-width="1.5"></path><path d="M686.91 559.94L802.82 504.35" stroke="hsl(208.5, 86.2%, 40.5%)" stroke-width="1.5"></path><path d="M686.91 559.94L856.34 648.02" stroke="hsl(208.5, 86.2%, 40.5%)" stroke-width="1.5"></path><path d="M802.82 504.35L802.82 504.35" stroke="hsl(208.5, 86.2%, 40.5%)" stroke-width="1.5"></path><path d="M802.82 504.35L856.34 648.02" stroke="hsl(208.5, 86.2%, 40.5%)" stroke-width="1.5"></path><path d="M856.34 648.02L856.34 648.02" stroke="hsl(208.5, 86.2%, 40.5%)" stroke-width="1.5"></path><path d="M856.34 648.02L957.1 542.87" stroke="hsl(208.5, 86.2%, 40.5%)" stroke-width="1.5"></path><path d="M856.34 648.02L1104.47 660.74" stroke="hsl(208.5, 86.2%, 40.5%)" stroke-width="1.5"></path><path d="M856.34 648.02L974.03 398.41" stroke="hsl(208.5, 86.2%, 40.5%)" stroke-width="1.5"></path><path d="M974.03 398.41L974.03 398.41" stroke="hsl(208.5, 86.2%, 40.5%)" stroke-width="1.5"></path><path d="M974.03 398.41L1096.64 408.58" stroke="hsl(208.5, 86.2%, 40.5%)" stroke-width="1.5"></path><path d="M974.03 398.41L957.1 542.87" stroke="hsl(208.5, 86.2%, 40.5%)" stroke-width="1.5"></path><path d="M974.03 398.41L802.82 504.35" stroke="hsl(208.5, 86.2%, 40.5%)" stroke-width="1.5"></path><path d="M957.1 542.87L957.1 542.87" stroke="hsl(208.5, 86.2%, 40.5%)" stroke-width="1.5"></path><path d="M957.1 542.87L802.82 504.35" stroke="hsl(208.5, 86.2%, 40.5%)" stroke-width="1.5"></path><path d="M1145.88 197.79L1145.88 197.79" stroke="hsl(208.5, 86.2%, 40.5%)" stroke-width="1.5"></path><path d="M1145.88 197.79L1245.92 92.17" stroke="hsl(208.5, 86.2%, 40.5%)" stroke-width="1.5"></path><path d="M1145.88 197.79L1096.64 408.58" stroke="hsl(208.5, 86.2%, 40.5%)" stroke-width="1.5"></path><path d="M1096.64 408.58L1096.64 408.58" stroke="hsl(208.5, 86.2%, 40.5%)" stroke-width="1.5"></path><path d="M1096.64 408.58L1118.47 545.78" stroke="hsl(208.5, 86.2%, 40.5%)" stroke-width="1.5"></path><path d="M1096.64 408.58L1248.65 405.53" stroke="hsl(208.5, 86.2%, 40.5%)" stroke-width="1.5"></path><path d="M1096.64 408.58L957.1 542.87" stroke="hsl(208.5, 86.2%, 40.5%)" stroke-width="1.5"></path><path d="M1118.47 545.78L1118.47 545.78" stroke="hsl(208.5, 86.2%, 40.5%)" stroke-width="1.5"></path><path d="M1118.47 545.78L1104.47 660.74" stroke="hsl(208.5, 86.2%, 40.5%)" stroke-width="1.5"></path><path d="M1118.47 545.78L1264.4 548.61" stroke="hsl(208.5, 86.2%, 40.5%)" stroke-width="1.5"></path><path d="M1118.47 545.78L957.1 542.87" stroke="hsl(208.5, 86.2%, 40.5%)" stroke-width="1.5"></path><path d="M1118.47 545.78L1248.65 405.53" stroke="hsl(208.5, 86.2%, 40.5%)" stroke-width="1.5"></path><path d="M1118.47 545.78L974.03 398.41" stroke="hsl(208.5, 86.2%, 40.5%)" stroke-width="1.5"></path><path d="M1104.47 660.74L1104.47 660.74" stroke="hsl(208.5, 86.2%, 40.5%)" stroke-width="1.5"></path><path d="M1104.47 660.74L1260.43 708.53" stroke="hsl(208.5, 86.2%, 40.5%)" stroke-width="1.5"></path><path d="M1104.47 660.74L957.1 542.87" stroke="hsl(208.5, 86.2%, 40.5%)" stroke-width="1.5"></path><path d="M1104.47 660.74L1264.4 548.61" stroke="hsl(208.5, 86.2%, 40.5%)" stroke-width="1.5"></path><path d="M1311.86 -91.18L1311.86 -91.18" stroke="hsl(208.5, 86.2%, 40.5%)" stroke-width="1.5"></path><path d="M1311.86 -91.18L1396.7 77.98" stroke="hsl(208.5, 86.2%, 40.5%)" stroke-width="1.5"></path><path d="M1245.92 92.17L1245.92 92.17" stroke="hsl(208.5, 86.2%, 40.5%)" stroke-width="1.5"></path><path d="M1248.65 405.53L1248.65 405.53" stroke="hsl(208.5, 86.2%, 40.5%)" stroke-width="1.5"></path><path d="M1248.65 405.53L1264.4 548.61" stroke="hsl(208.5, 86.2%, 40.5%)" stroke-width="1.5"></path><path d="M1248.65 405.53L1393.47 374.85" stroke="hsl(208.5, 86.2%, 40.5%)" stroke-width="1.5"></path><path d="M1248.65 405.53L1388.95 547.87" stroke="hsl(208.5, 86.2%, 40.5%)" stroke-width="1.5"></path><path d="M1248.65 405.53L1284.08 203.09" stroke="hsl(208.5, 86.2%, 40.5%)" stroke-width="1.5"></path><path d="M1264.4 548.61L1264.4 548.61" stroke="hsl(208.5, 86.2%, 40.5%)" stroke-width="1.5"></path><path d="M1264.4 548.61L1388.95 547.87" stroke="hsl(208.5, 86.2%, 40.5%)" stroke-width="1.5"></path><path d="M1264.4 548.61L1260.43 708.53" stroke="hsl(208.5, 86.2%, 40.5%)" stroke-width="1.5"></path><path d="M1264.4 548.61L1404.5 656.45" stroke="hsl(208.5, 86.2%, 40.5%)" stroke-width="1.5"></path><path d="M1260.43 708.53L1260.43 708.53" stroke="hsl(208.5, 86.2%, 40.5%)" stroke-width="1.5"></path><path d="M1260.43 708.53L1404.5 656.45" stroke="hsl(208.5, 86.2%, 40.5%)" stroke-width="1.5"></path><path d="M1260.43 708.53L1388.95 547.87" stroke="hsl(208.5, 86.2%, 40.5%)" stroke-width="1.5"></path><path d="M1396.7 77.98L1396.7 77.98" stroke="hsl(208.5, 86.2%, 40.5%)" stroke-width="1.5"></path><path d="M1396.7 77.98L1245.92 92.17" stroke="hsl(208.5, 86.2%, 40.5%)" stroke-width="1.5"></path><path d="M1396.7 77.98L1455.19 243.46" stroke="hsl(208.5, 86.2%, 40.5%)" stroke-width="1.5"></path><path d="M1396.7 77.98L1611.79 82.68" stroke="hsl(208.5, 86.2%, 40.5%)" stroke-width="1.5"></path><path d="M1393.47 374.85L1393.47 374.85" stroke="hsl(208.5, 86.2%, 40.5%)" stroke-width="1.5"></path><path d="M1393.47 374.85L1388.95 547.87" stroke="hsl(208.5, 86.2%, 40.5%)" stroke-width="1.5"></path><path d="M1388.95 547.87L1388.95 547.87" stroke="hsl(208.5, 86.2%, 40.5%)" stroke-width="1.5"></path><path d="M1388.95 547.87L1404.5 656.45" stroke="hsl(208.5, 86.2%, 40.5%)" stroke-width="1.5"></path><path d="M1388.95 547.87L1570.34 548.13" stroke="hsl(208.5, 86.2%, 40.5%)" stroke-width="1.5"></path><path d="M1388.95 547.87L1547.92 641.95" stroke="hsl(208.5, 86.2%, 40.5%)" stroke-width="1.5"></path><path d="M1404.5 656.45L1404.5 656.45" stroke="hsl(208.5, 86.2%, 40.5%)" stroke-width="1.5"></path><path d="M1404.5 656.45L1547.92 641.95" stroke="hsl(208.5, 86.2%, 40.5%)" stroke-width="1.5"></path><path d="M1404.5 656.45L1570.34 548.13" stroke="hsl(208.5, 86.2%, 40.5%)" stroke-width="1.5"></path><path d="M1404.5 656.45L1393.47 374.85" stroke="hsl(208.5, 86.2%, 40.5%)" stroke-width="1.5"></path><path d="M1611.79 82.68L1611.79 82.68" stroke="hsl(208.5, 86.2%, 40.5%)" stroke-width="1.5"></path><path d="M1611.79 82.68L1576.97 248.77" stroke="hsl(208.5, 86.2%, 40.5%)" stroke-width="1.5"></path><path d="M1611.79 82.68L1455.19 243.46" stroke="hsl(208.5, 86.2%, 40.5%)" stroke-width="1.5"></path><path d="M1576.97 248.77L1576.97 248.77" stroke="hsl(208.5, 86.2%, 40.5%)" stroke-width="1.5"></path><path d="M1576.97 248.77L1584.28 359.78" stroke="hsl(208.5, 86.2%, 40.5%)" stroke-width="1.5"></path><path d="M1576.97 248.77L1393.47 374.85" stroke="hsl(208.5, 86.2%, 40.5%)" stroke-width="1.5"></path><path d="M1584.28 359.78L1584.28 359.78" stroke="hsl(208.5, 86.2%, 40.5%)" stroke-width="1.5"></path><path d="M1584.28 359.78L1455.19 243.46" stroke="hsl(208.5, 86.2%, 40.5%)" stroke-width="1.5"></path><path d="M1584.28 359.78L1570.34 548.13" stroke="hsl(208.5, 86.2%, 40.5%)" stroke-width="1.5"></path><path d="M1584.28 359.78L1393.47 374.85" stroke="hsl(208.5, 86.2%, 40.5%)" stroke-width="1.5"></path><path d="M1584.28 359.78L1388.95 547.87" stroke="hsl(208.5, 86.2%, 40.5%)" stroke-width="1.5"></path><path d="M1570.34 548.13L1570.34 548.13" stroke="hsl(208.5, 86.2%, 40.5%)" stroke-width="1.5"></path><path d="M1570.34 548.13L1547.92 641.95" stroke="hsl(208.5, 86.2%, 40.5%)" stroke-width="1.5"></path><path d="M1547.92 641.95L1547.92 641.95" stroke="hsl(208.5, 86.2%, 40.5%)" stroke-width="1.5"></path><circle r="25" cx="510.32" cy="675.56" fill="url(&quot;#SvgjsRadialGradient1215&quot;)"></circle><circle r="25" cx="676.48" cy="638.45" fill="url(&quot;#SvgjsRadialGradient1215&quot;)"></circle><circle r="25" cx="1284.08" cy="203.09" fill="url(&quot;#SvgjsRadialGradient1215&quot;)"></circle><circle r="25" cx="1455.19" cy="243.46" fill="url(&quot;#SvgjsRadialGradient1215&quot;)"></circle><circle r="25" cx="1579.93" cy="-53.83" fill="url(&quot;#SvgjsRadialGradient1215&quot;)"></circle><circle r="5" cx="-109.24" cy="513.06" fill="#85a9ca"></circle><circle r="5" cx="-61.39" cy="664.64" fill="#85a9ca"></circle><circle r="5" cx="76.63" cy="548.36" fill="#85a9ca"></circle><circle r="5" cx="53.36" cy="706.81" fill="#85a9ca"></circle><circle r="5" cx="358.7" cy="536.95" fill="#85a9ca"></circle><circle r="5" cx="547.25" cy="534.1" fill="#85a9ca"></circle><circle r="5" cx="684" cy="374.11" fill="#85a9ca"></circle><circle r="5" cx="686.91" cy="559.94" fill="#85a9ca"></circle><circle r="5" cx="802.82" cy="504.35" fill="#85a9ca"></circle><circle r="5" cx="856.34" cy="648.02" fill="#85a9ca"></circle><circle r="5" cx="974.03" cy="398.41" fill="#85a9ca"></circle><circle r="5" cx="957.1" cy="542.87" fill="#85a9ca"></circle><circle r="5" cx="1145.88" cy="197.79" fill="#85a9ca"></circle><circle r="5" cx="1096.64" cy="408.58" fill="#85a9ca"></circle><circle r="5" cx="1118.47" cy="545.78" fill="#85a9ca"></circle><circle r="5" cx="1104.47" cy="660.74" fill="#85a9ca"></circle><circle r="5" cx="1311.86" cy="-91.18" fill="#85a9ca"></circle><circle r="5" cx="1245.92" cy="92.17" fill="#85a9ca"></circle><circle r="5" cx="1248.65" cy="405.53" fill="#85a9ca"></circle><circle r="5" cx="1264.4" cy="548.61" fill="#85a9ca"></circle><circle r="5" cx="1260.43" cy="708.53" fill="#85a9ca"></circle><circle r="5" cx="1396.7" cy="77.98" fill="#85a9ca"></circle><circle r="5" cx="1393.47" cy="374.85" fill="#85a9ca"></circle><circle r="5" cx="1388.95" cy="547.87" fill="#85a9ca"></circle><circle r="5" cx="1404.5" cy="656.45" fill="#85a9ca"></circle><circle r="5" cx="1611.79" cy="82.68" fill="#85a9ca"></circle><circle r="5" cx="1576.97" cy="248.77" fill="#85a9ca"></circle><circle r="5" cx="1584.28" cy="359.78" fill="#85a9ca"></circle><circle r="5" cx="1570.34" cy="548.13" fill="#85a9ca"></circle><circle r="5" cx="1547.92" cy="641.95" fill="#85a9ca"></circle></g><defs><mask id="SvgjsMask1213"><rect width="1440" height="560" fill="#ffffff"></rect></mask><linearGradient x1="50%" y1="100%" x2="50%" y2="0%" gradientUnits="userSpaceOnUse" id="SvgjsLinearGradient1214"><stop stop-color="#0e2a47" offset="0"></stop><stop stop-color="rgba(0, 0, 0, 1)" offset="1"></stop></linearGradient><radialGradient id="SvgjsRadialGradient1215"><stop stop-color="#ffffff" offset="0.1"></stop><stop stop-color="rgba(11, 83, 148, 1)" offset="0.2"></stop><stop stop-color="rgba(11, 83, 148, 0)" offset="1"></stop></radialGradient></defs></svg>